<svg width="383" height="150" viewBox="0 0 383 150" fill="none" xmlns="http://www.w3.org/2000/svg">
<path d="M135.176 15H105.137V105H135.176V15Z" fill="#C4C4C4"/>
<path d="M180.236 37.5H150.196V105H180.236V37.5Z" fill="#C4C4C4"/>
<path d="M270.353 15H240.314V105H270.353V15Z" fill="#C4C4C4"/>
<path d="M225.294 37.5H195.255V105H225.294V37.5Z" fill="#C4C4C4"/>
<path d="M270.353 60H105.137V105H270.353V60Z" fill="#C4C4C4"/>
<path d="M17.7233 133.088L15.6957 142.5H12.2036L8.82422 123.75H12.0159L14.1562 138.638L16.6344 127.125H19.0751L21.328 138.638L23.4683 123.75H26.4723L23.1304 142.5H19.5257L17.7233 133.088ZM66.6137 142.5C64.4107 142.5 62.7961 142.037 61.7698 141.113C60.7435 140.162 60.2303 138.625 60.2303 136.5V129.75C60.2303 127.6 60.6934 126.062 61.6196 125.137C62.5458 124.213 64.0853 123.75 66.2382 123.75H68.003C69.7802 123.75 71.1195 124.25 72.0207 125.25C72.9469 126.225 73.41 127.663 73.41 129.562V134.437H63.422V137.25C63.422 138.025 63.6598 138.625 64.1354 139.05C64.611 139.475 65.3119 139.688 66.2382 139.688H72.2085V142.5H66.6137ZM70.2935 128.812C70.2935 128.162 70.0806 127.625 69.6551 127.2C69.2296 126.775 68.6913 126.562 68.0405 126.562H65.8627C64.9615 126.562 64.3232 126.775 63.9477 127.2C63.5972 127.6 63.422 128.2 63.422 129V131.625H70.2935V128.812ZM122.901 136.5C122.901 138.6 122.375 140.125 121.324 141.075C120.297 142.025 118.696 142.5 116.518 142.5H109.158V116.25H112.35V124.5C113.101 124 114.04 123.75 115.166 123.75H116.518C118.72 123.75 120.335 124.225 121.362 125.175C122.388 126.1 122.901 127.625 122.901 129.75V136.5ZM114.791 126.562C113.964 126.562 113.351 126.788 112.951 127.238C112.55 127.663 112.35 128.125 112.35 128.625V139.688H116.893C117.819 139.688 118.521 139.475 118.996 139.05C119.471 138.625 119.709 138.025 119.709 137.25V129C119.709 128.225 119.471 127.625 118.996 127.2C118.521 126.775 117.819 126.562 116.893 126.562H114.791ZM170.928 137.812C170.928 139.388 170.44 140.563 169.463 141.337C168.512 142.112 167.123 142.5 165.296 142.5H159.701V139.688H165.671C166.347 139.688 166.86 139.55 167.211 139.275C167.561 138.975 167.736 138.55 167.736 138V136.013C167.736 134.888 167.198 134.325 166.122 134.325H164.732C162.98 134.325 161.666 133.95 160.79 133.2C159.939 132.425 159.513 131.212 159.513 129.562V128.475C159.513 126.8 159.988 125.6 160.94 124.875C161.891 124.125 163.293 123.75 165.145 123.75H170.177V126.562H164.77C164.144 126.562 163.643 126.712 163.268 127.012C162.892 127.288 162.705 127.7 162.705 128.25V129.6C162.705 130.175 162.868 130.6 163.193 130.875C163.543 131.15 163.981 131.287 164.507 131.287H165.784C167.461 131.287 168.737 131.7 169.614 132.525C170.49 133.325 170.928 134.525 170.928 136.125V137.812ZM216.176 116.25V119.625H212.609V116.25H216.176ZM207.277 126.562V123.75H215.988V139.688H221.545V142.5H212.797V126.562H207.277ZM264.991 142.5C263.714 142.5 262.738 142.087 262.062 141.262C261.386 140.437 261.049 139.35 261.049 138V126.562H257.481V123.75H261.049V119.25H264.24V123.75H269.722V126.562H264.24V138.187C264.24 138.737 264.378 139.125 264.653 139.35C264.928 139.575 265.354 139.688 265.93 139.688H269.722V142.5H264.991ZM312.567 142.5C310.364 142.5 308.749 142.037 307.723 141.113C306.697 140.162 306.184 138.625 306.184 136.5V129.75C306.184 127.6 306.647 126.062 307.573 125.137C308.499 124.213 310.039 123.75 312.192 123.75H313.957C315.733 123.75 317.073 124.25 317.974 125.25C318.9 126.225 319.364 127.663 319.364 129.562V134.437H309.376V137.25C309.376 138.025 309.613 138.625 310.089 139.05C310.564 139.475 311.265 139.688 312.192 139.688H318.162V142.5H312.567ZM316.247 128.812C316.247 128.162 316.034 127.625 315.609 127.2C315.183 126.775 314.644 126.562 313.994 126.562H311.816C310.915 126.562 310.277 126.775 309.901 127.2C309.551 127.6 309.376 128.2 309.376 129V131.625H316.247V128.812ZM367.691 137.812C367.691 139.388 367.203 140.563 366.226 141.337C365.275 142.112 363.885 142.5 362.058 142.5H356.464V139.688H362.434C363.11 139.688 363.623 139.55 363.973 139.275C364.323 138.975 364.499 138.55 364.499 138V136.013C364.499 134.888 363.961 134.325 362.884 134.325H361.495C359.742 134.325 358.428 133.95 357.552 133.2C356.701 132.425 356.276 131.212 356.276 129.562V128.475C356.276 126.8 356.751 125.6 357.703 124.875C358.653 124.125 360.056 123.75 361.908 123.75H366.94V126.562H361.533C360.906 126.562 360.406 126.712 360.031 127.012C359.655 127.288 359.467 127.7 359.467 128.25V129.6C359.467 130.175 359.63 130.6 359.956 130.875C360.306 131.15 360.744 131.287 361.27 131.287H362.547C364.223 131.287 365.5 131.7 366.377 132.525C367.252 133.325 367.691 134.525 367.691 136.125V137.812Z" fill="black"/>
<path d="M44.8712 61.95C47.2743 58.5 48.8889 56.0625 49.715 54.6375C50.6162 53.1375 51.217 51.6375 51.5174 50.1375C51.8178 48.6375 51.9679 46.4625 51.9679 43.6125V35.7375C51.9679 33.4125 51.1043 31.425 49.3771 29.775C47.6498 28.125 45.3969 27.3 42.6182 27.3H29.1006V18.75H41.4918C48.0253 18.75 53.0193 20.3625 56.4738 23.5875C60.0034 26.7375 61.7682 31.5 61.7682 37.875V42.6C61.7682 46.35 61.5054 49.3875 60.9797 51.7125C60.454 54.0375 59.703 56.1 58.7268 57.9C57.7505 59.7 56.1359 62.2125 53.8829 65.4375L37.2112 88.95H64.0212V97.5H26.8477V87.6L44.8712 61.95ZM94.7783 68.475V97.5H84.978V18.75H94.7783V52.725L116.181 18.75H126.883L105.142 53.5125L128.235 97.5H116.97L99.0589 62.0625L94.7783 68.475ZM172.397 18.75V28.875H161.695V18.75H172.397ZM145.699 49.6875V41.25H171.833V89.0625H188.505V97.5H162.258V49.6875H145.699ZM216.334 41.25V43.95C218.662 42.15 221.665 41.25 225.345 41.25H230.527C236.61 41.25 241.116 42.675 244.045 45.525C247.049 48.375 248.551 52.95 248.551 59.25V97.5H238.976V57C238.976 54.75 238.3 52.9875 236.948 51.7125C235.671 50.3625 233.906 49.6875 231.654 49.6875H224.219C221.741 49.6875 219.901 50.3625 218.699 51.7125C217.498 52.9875 216.897 54.375 216.897 55.875V97.5H207.322V41.25H216.334ZM310.961 101.438C310.961 106.538 309.421 110.325 306.342 112.8C303.338 115.35 298.607 116.625 292.149 116.625H268.718V108.188H293.275C295.979 108.188 298.006 107.663 299.358 106.613C300.71 105.563 301.386 104.213 301.386 102.563V98.9625C301.386 97.2375 300.71 95.8875 299.358 94.9125C298.006 93.8625 295.979 93.3375 293.275 93.3375H273.787V77.8125C271.309 76.4625 269.469 74.5125 268.268 71.9625C267.066 69.4125 266.465 66.1125 266.465 62.0625V59.25C266.465 52.95 268.005 48.375 271.084 45.525C274.238 42.675 279.082 41.25 285.615 41.25H309.271V62.0625C309.271 67.6875 307.732 72.1125 304.653 75.3375C301.574 78.4875 297.481 80.0625 292.374 80.0625H283.362V84.9H292.149C298.607 84.9 303.338 86.175 306.342 88.725C309.421 91.2 310.961 94.9875 310.961 100.088V101.438ZM292.374 71.625C294.702 71.625 296.467 70.875 297.668 69.375C298.87 67.875 299.546 66.3 299.696 64.65V49.6875H284.489C281.71 49.6875 279.607 50.325 278.18 51.6C276.754 52.875 276.04 54.675 276.04 57V64.3125C276.04 66.6375 276.754 68.4375 278.18 69.7125C279.607 70.9875 281.71 71.625 284.489 71.625H292.374ZM366.726 83.4375C366.726 88.1625 365.261 91.6875 362.332 94.0125C359.479 96.3375 355.311 97.5 349.829 97.5H333.044V89.0625H350.955C352.983 89.0625 354.522 88.65 355.574 87.825C356.625 86.925 357.151 85.65 357.151 84V78.0375C357.151 74.6625 355.536 72.975 352.307 72.975H348.139C342.882 72.975 338.939 71.85 336.311 69.6C333.758 67.275 332.481 63.6375 332.481 58.6875V55.425C332.481 50.4 333.908 46.8 336.761 44.625C339.615 42.375 343.821 41.25 349.378 41.25H364.473V49.6875H348.251C346.374 49.6875 344.872 50.1375 343.746 51.0375C342.619 51.8625 342.056 53.1 342.056 54.75V58.8C342.056 60.525 342.544 61.8 343.52 62.625C344.572 63.45 345.886 63.8625 347.463 63.8625H351.293C356.324 63.8625 360.155 65.1 362.783 67.575C365.411 69.975 366.726 73.575 366.726 78.375V83.4375Z" fill="black"/>
<path d="M44.8712 61.95L47.9448 64.1042L47.9536 64.0915L44.8712 61.95ZM49.715 54.6375L46.4948 52.7079L46.4655 52.7586L49.715 54.6375ZM51.5174 50.1375L47.8354 49.4021L51.5174 50.1375ZM49.3771 29.775L51.9725 27.0651L49.3771 29.775ZM29.1006 27.3H25.3457V31.05H29.1006V27.3ZM29.1006 18.75V15H25.3457V18.75H29.1006ZM56.4739 23.5875L53.909 26.3277L53.9718 26.3837L56.4739 23.5875ZM60.9797 51.7125L64.6424 52.5385L60.9797 51.7125ZM58.7268 57.9L55.4251 56.114L58.7268 57.9ZM53.883 65.4375L56.9474 67.6047L56.9624 67.5832L53.883 65.4375ZM37.2112 88.95L34.1468 86.7825L29.9512 92.7H37.2112V88.95ZM64.0212 88.95H67.7761V85.2H64.0212V88.95ZM64.0212 97.5V101.25H67.7761V97.5H64.0212ZM26.8477 97.5H23.0928V101.25H26.8477V97.5ZM26.8477 87.6L23.7741 85.446L23.0928 86.4158V87.6H26.8477ZM47.9536 64.0915C50.3528 60.6471 52.0509 58.0926 52.9646 56.5164L46.4655 52.7586C45.727 54.0324 44.1958 56.3529 41.7888 59.8085L47.9536 64.0915ZM52.9349 56.5669C54.0261 54.7505 54.8034 52.8502 55.1994 50.873L47.8354 49.4021C47.6306 50.4248 47.2063 51.5246 46.4952 52.7081L52.9349 56.5669ZM55.1994 50.873C55.5733 49.0059 55.7229 46.5369 55.7229 43.6125H48.2131C48.2131 46.388 48.0623 48.269 47.8354 49.4021L55.1994 50.873ZM55.7229 43.6125V35.7375H48.2131V43.6125H55.7229ZM55.7229 35.7375C55.7229 32.3586 54.4181 29.4012 51.9725 27.0651L46.7816 32.4849C47.7906 33.4487 48.2131 34.4664 48.2131 35.7375H55.7229ZM51.9725 27.0651C49.4334 24.6395 46.1952 23.55 42.6183 23.55V31.05C44.5986 31.05 45.8663 31.6105 46.7816 32.4849L51.9725 27.0651ZM42.6183 23.55H29.1006V31.05H42.6183V23.55ZM32.8555 27.3V18.75H25.3457V27.3H32.8555ZM29.1006 22.5H41.4918V15H29.1006V22.5ZM41.4918 22.5C47.4401 22.5 51.379 23.9644 53.9097 26.327L59.038 20.8481C54.6597 16.7606 48.6106 15 41.4918 15V22.5ZM53.9718 26.3837C56.4533 28.5983 58.0134 32.1779 58.0134 37.875H65.5232C65.5232 30.8222 63.5536 24.8767 58.9759 20.7913L53.9718 26.3837ZM58.0134 37.875V42.6H65.5232V37.875H58.0134ZM58.0134 42.6C58.0134 46.2109 57.757 48.9409 57.317 50.8865L64.6424 52.5385C65.2539 49.8341 65.5232 46.489 65.5232 42.6H58.0134ZM57.317 50.8865C56.855 52.93 56.2133 54.6607 55.4251 56.114L62.0285 59.6861C63.1928 57.5393 64.0531 55.1449 64.6424 52.5385L57.317 50.8865ZM55.4251 56.114C54.5519 57.724 53.0347 60.0979 50.8035 63.2918L56.9624 67.5832C59.2371 64.3271 60.9492 61.676 62.0285 59.6861L55.4251 56.114ZM50.8186 63.2704L34.1468 86.7825L40.2756 91.1175L56.9473 67.6046L50.8186 63.2704ZM37.2112 92.7H64.0212V85.2H37.2112V92.7ZM60.2663 88.95V97.5H67.7761V88.95H60.2663ZM64.0212 93.75H26.8477V101.25H64.0212V93.75ZM30.6026 97.5V87.6H23.0928V97.5H30.6026ZM29.9213 89.754L47.9448 64.1041L41.7976 59.7959L23.7741 85.446L29.9213 89.754ZM94.7784 68.475L91.6543 66.3949L91.0235 67.3396V68.475H94.7784ZM94.7784 97.5V101.25H98.5333V97.5H94.7784ZM84.9781 97.5H81.2232V101.25H84.9781V97.5ZM84.9781 18.75V15H81.2232V18.75H84.9781ZM94.7784 18.75H98.5333V15H94.7784V18.75ZM94.7784 52.725H91.0235V65.7276L97.9565 54.722L94.7784 52.725ZM116.181 18.75V15H114.107L113.003 16.7531L116.181 18.75ZM126.883 18.75L130.068 20.7366L133.655 15H126.883V18.75ZM105.142 53.5125L101.957 51.5259L100.816 53.3495L101.817 55.2538L105.142 53.5125ZM128.235 97.5V101.25H134.443L131.56 95.7585L128.235 97.5ZM116.97 97.5L113.617 99.1898L114.659 101.25H116.97V97.5ZM99.059 62.0625L102.411 60.3727L99.508 54.6292L95.9349 59.9824L99.059 62.0625ZM91.0235 68.475V97.5H98.5333V68.475H91.0235ZM94.7784 93.75H84.9781V101.25H94.7784V93.75ZM88.733 97.5V18.75H81.2232V97.5H88.733ZM84.9781 22.5H94.7784V15H84.9781V22.5ZM91.0235 18.75V52.725H98.5333V18.75H91.0235ZM97.9565 54.722L119.359 20.7469L113.003 16.7531L91.6002 50.7281L97.9565 54.722ZM116.181 22.5H126.883V15H116.181V22.5ZM123.698 16.7634L101.957 51.5259L108.327 55.4991L130.068 20.7366L123.698 16.7634ZM101.817 55.2538L124.909 99.2415L131.56 95.7585L108.467 51.7712L101.817 55.2538ZM128.235 93.75H116.97V101.25H128.235V93.75ZM120.321 95.8102L102.411 60.3727L95.7066 63.7523L113.617 99.1898L120.321 95.8102ZM95.9349 59.9824L91.6543 66.3949L97.9024 70.5551L102.183 64.1426L95.9349 59.9824ZM172.397 18.75H176.152V15H172.397V18.75ZM172.397 28.875V32.625H176.152V28.875H172.397ZM161.695 28.875H157.94V32.625H161.695V28.875ZM161.695 18.75V15H157.94V18.75H161.695ZM145.699 49.6875H141.944V53.4375H145.699V49.6875ZM145.699 41.25V37.5H141.944V41.25H145.699ZM171.833 41.25H175.588V37.5H171.833V41.25ZM171.833 89.0625H168.079V92.8125H171.833V89.0625ZM188.505 89.0625H192.26V85.3125H188.505V89.0625ZM188.505 97.5V101.25H192.26V97.5H188.505ZM162.258 97.5H158.504V101.25H162.258V97.5ZM162.258 49.6875H166.013V45.9375H162.258V49.6875ZM168.642 18.75V28.875H176.152V18.75H168.642ZM172.397 25.125H161.695V32.625H172.397V25.125ZM165.45 28.875V18.75H157.94V28.875H165.45ZM161.695 22.5H172.397V15H161.695V22.5ZM149.454 49.6875V41.25H141.944V49.6875H149.454ZM145.699 45H171.833V37.5H145.699V45ZM168.079 41.25V89.0625H175.588V41.25H168.079ZM171.833 92.8125H188.505V85.3125H171.833V92.8125ZM184.75 89.0625V97.5H192.26V89.0625H184.75ZM188.505 93.75H162.258V101.25H188.505V93.75ZM166.013 97.5V49.6875H158.504V97.5H166.013ZM162.258 45.9375H145.699V53.4375H162.258V45.9375ZM216.334 41.25H220.088V37.5H216.334V41.25ZM216.334 43.95H212.579V51.5957L218.632 46.9152L216.334 43.95ZM244.045 45.525L241.424 48.2111L241.458 48.2437L244.045 45.525ZM248.551 97.5V101.25H252.306V97.5H248.551ZM238.976 97.5H235.221V101.25H238.976V97.5ZM236.948 51.7125L234.218 54.2873L234.292 54.3652L234.369 54.4388L236.948 51.7125ZM218.699 51.7125L221.433 54.2826L221.469 54.2438L221.506 54.2038L218.699 51.7125ZM216.897 97.5V101.25H220.652V97.5H216.897ZM207.322 97.5H203.567V101.25H207.322V97.5ZM207.322 41.25V37.5H203.567V41.25H207.322ZM212.579 41.25V43.95H220.088V41.25H212.579ZM218.632 46.9152C220.152 45.7399 222.286 45 225.345 45V37.5C221.045 37.5 217.17 38.5601 214.035 40.9848L218.632 46.9152ZM225.345 45H230.527V37.5H225.345V45ZM230.527 45C236.102 45 239.473 46.3131 241.424 48.2108L246.665 42.8391C242.758 39.0369 237.117 37.5 230.527 37.5V45ZM241.458 48.2437C243.402 50.0882 244.796 53.4461 244.796 59.25H252.306C252.306 52.4539 250.695 46.6618 246.63 42.8062L241.458 48.2437ZM244.796 59.25V97.5H252.306V59.25H244.796ZM248.551 93.75H238.976V101.25H248.551V93.75ZM242.73 97.5V57H235.221V97.5H242.73ZM242.73 57C242.73 53.9534 241.784 51.1163 239.526 48.9862L234.369 54.4388C234.814 54.8587 235.221 55.5466 235.221 57H242.73ZM239.678 49.1377C237.544 46.8822 234.704 45.9375 231.654 45.9375V53.4375C233.109 53.4375 233.798 53.8428 234.218 54.2873L239.678 49.1377ZM231.654 45.9375H224.219V53.4375H231.654V45.9375ZM224.219 45.9375C221.082 45.9375 218.042 46.8062 215.893 49.2211L221.506 54.2038C221.759 53.9188 222.398 53.4375 224.219 53.4375V45.9375ZM215.965 49.1424C214.225 50.9885 213.142 53.2615 213.142 55.875H220.652C220.652 55.4884 220.77 54.9865 221.433 54.2826L215.965 49.1424ZM213.142 55.875V97.5H220.652V55.875H213.142ZM216.897 93.75H207.322V101.25H216.897V93.75ZM211.077 97.5V41.25H203.567V97.5H211.077ZM207.322 45H216.334V37.5H207.322V45ZM306.342 112.8L303.987 109.878L303.911 109.943L306.342 112.8ZM268.718 116.625H264.963V120.375H268.718V116.625ZM268.718 108.188V104.438H264.963V108.188H268.718ZM299.358 106.613L297.053 103.652L299.358 106.613ZM299.358 94.9125L297.053 97.8727L297.106 97.9133L297.16 97.9522L299.358 94.9125ZM273.787 93.3375H270.032V97.0875H273.787V93.3375ZM273.787 77.8125H277.542V75.5865L275.586 74.5204L273.787 77.8125ZM268.268 71.9625L271.666 70.3657L268.268 71.9625ZM271.084 45.525L268.565 42.7441L268.532 42.7746L271.084 45.525ZM309.271 41.25H313.026V37.5H309.271V41.25ZM304.653 75.3375L307.34 77.9573L307.37 77.925L304.653 75.3375ZM283.362 80.0625V76.3125H279.607V80.0625H283.362ZM283.362 84.9H279.607V88.65H283.362V84.9ZM306.342 88.725L303.91 91.5832L303.988 91.6462L306.342 88.725ZM297.668 69.375L300.601 71.7176L297.668 69.375ZM299.696 64.65L303.436 64.9895L303.451 64.8201V64.65H299.696ZM299.696 49.6875H303.451V45.9375H299.696V49.6875ZM278.181 51.6L280.684 54.3947L278.181 51.6ZM278.181 69.7125L280.684 66.9179L278.181 69.7125ZM307.206 101.438C307.206 105.761 305.935 108.313 303.988 109.879L308.697 115.721C312.908 112.336 314.716 107.314 314.716 101.438H307.206ZM303.911 109.943C301.902 111.648 298.246 112.875 292.149 112.875V120.375C298.969 120.375 304.775 119.052 308.775 115.657L303.911 109.943ZM292.149 112.875H268.718V120.375H292.149V112.875ZM272.473 116.625V108.188H264.963V116.625H272.473ZM268.718 111.938H293.275V104.438H268.718V111.938ZM293.275 111.938C296.363 111.938 299.368 111.355 301.664 109.573L297.053 103.652C296.646 103.969 295.596 104.438 293.275 104.438V111.938ZM301.664 109.573C303.891 107.842 305.141 105.418 305.141 102.562H297.631C297.631 103.007 297.53 103.283 297.053 103.652L301.664 109.573ZM305.141 102.562V98.9625H297.631V102.562H305.141ZM305.141 98.9625C305.141 96.0847 303.927 93.582 301.557 91.8727L297.16 97.9522C297.493 98.193 297.631 98.3903 297.631 98.9625H305.141ZM301.664 91.9522C299.368 90.1695 296.363 89.5875 293.275 89.5875V97.0875C295.596 97.0875 296.646 97.5555 297.053 97.8727L301.664 91.9522ZM293.275 89.5875H273.787V97.0875H293.275V89.5875ZM277.542 93.3375V77.8125H270.032V93.3375H277.542ZM275.586 74.5204C273.807 73.5515 272.527 72.1952 271.666 70.3657L264.87 73.5593C266.412 76.83 268.812 79.3733 271.989 81.1042L275.586 74.5204ZM271.666 70.3657C270.779 68.4843 270.22 65.7841 270.22 62.0625H262.71C262.71 66.4409 263.354 70.3407 264.87 73.5593L271.666 70.3657ZM270.22 62.0625V59.25H262.71V62.0625H270.22ZM270.22 59.25C270.22 53.4696 271.639 50.1242 273.636 48.2754L268.532 42.7746C264.371 46.6258 262.71 52.4304 262.71 59.25H270.22ZM273.603 48.3058C275.778 46.3406 279.532 45 285.615 45V37.5C278.633 37.5 272.698 39.0095 268.565 42.7442L273.603 48.3058ZM285.615 45H309.271V37.5H285.615V45ZM305.516 41.25V62.0625H313.026V41.25H305.516ZM305.516 62.0625C305.516 66.988 304.186 70.3924 301.936 72.7497L307.37 77.925C311.278 73.8326 313.026 68.3869 313.026 62.0625H305.516ZM301.966 72.718C299.707 75.0293 296.643 76.3125 292.374 76.3125V83.8125C298.318 83.8125 303.441 81.9458 307.34 77.9573L301.966 72.718ZM292.374 76.3125H283.362V83.8125H292.374V76.3125ZM279.607 80.0625V84.9H287.117V80.0625H279.607ZM283.362 88.65H292.149V81.15H283.362V88.65ZM292.149 88.65C298.246 88.65 301.902 89.877 303.911 91.5825L308.775 85.8675C304.775 82.473 298.969 81.15 292.149 81.15V88.65ZM303.988 91.6462C305.935 93.2115 307.206 95.7638 307.206 100.088H314.716C314.716 94.2113 312.908 89.1885 308.697 85.8037L303.988 91.6462ZM307.206 100.088V101.438H314.716V100.088H307.206ZM292.374 75.375C295.577 75.375 298.536 74.2957 300.601 71.7176L294.737 67.0324C294.399 67.4543 293.828 67.875 292.374 67.875V75.375ZM300.601 71.7176C302.187 69.7372 303.209 67.483 303.436 64.9895L295.957 64.3105C295.883 65.117 295.554 66.0128 294.737 67.0324L300.601 71.7176ZM303.451 64.65V49.6875H295.941V64.65H303.451ZM299.696 45.9375H284.489V53.4375H299.696V45.9375ZM284.489 45.9375C281.197 45.9375 278.047 46.6877 275.677 48.8054L280.684 54.3947C281.169 53.9623 282.224 53.4375 284.489 53.4375V45.9375ZM275.677 48.8054C273.285 50.9429 272.285 53.8581 272.285 57H279.795C279.795 55.4919 280.223 54.8071 280.684 54.3947L275.677 48.8054ZM272.285 57V64.3125H279.795V57H272.285ZM272.285 64.3125C272.285 67.4544 273.285 70.3696 275.677 72.5071L280.684 66.9179C280.223 66.5054 279.795 65.8206 279.795 64.3125H272.285ZM275.677 72.5071C278.047 74.6248 281.197 75.375 284.489 75.375V67.875C282.224 67.875 281.169 67.3502 280.684 66.9179L275.677 72.5071ZM284.489 75.375H292.374V67.875H284.489V75.375ZM362.332 94.0125L359.996 91.077L359.959 91.107L362.332 94.0125ZM333.044 97.5H329.289V101.25H333.044V97.5ZM333.044 89.0625V85.3125H329.289V89.0625H333.044ZM355.574 87.825L357.893 90.774L357.956 90.7245L358.017 90.672L355.574 87.825ZM336.311 69.6L333.782 72.3711L333.824 72.4098L333.867 72.4472L336.311 69.6ZM336.762 44.625L339.04 47.6065L339.089 47.5683L336.762 44.625ZM364.473 41.25H368.228V37.5H364.473V41.25ZM364.473 49.6875V53.4375H368.228V49.6875H364.473ZM343.746 51.0375L345.966 54.0615L346.03 54.0149L346.092 53.9657L343.746 51.0375ZM343.52 62.625L341.095 65.4877L341.147 65.5316L341.201 65.5737L343.52 62.625ZM362.783 67.575L360.207 70.3038L360.249 70.3426L362.783 67.575ZM362.971 83.4375C362.971 87.3503 361.798 89.6468 359.996 91.077L364.669 96.948C368.725 93.7282 370.481 88.9747 370.481 83.4375H362.971ZM359.959 91.107C358.035 92.6745 354.853 93.75 349.829 93.75V101.25C355.769 101.25 360.923 100.001 364.706 96.918L359.959 91.107ZM349.829 93.75H333.044V101.25H349.829V93.75ZM336.799 97.5V89.0625H329.289V97.5H336.799ZM333.044 92.8125H350.955V85.3125H333.044V92.8125ZM350.955 92.8125C353.411 92.8125 355.916 92.3258 357.893 90.774L353.254 84.876C353.129 84.9743 352.555 85.3125 350.955 85.3125V92.8125ZM358.017 90.672C360.063 88.9215 360.906 86.5125 360.906 84H353.396C353.396 84.7875 353.188 84.9285 353.13 84.978L358.017 90.672ZM360.906 84V78.0375H353.396V84H360.906ZM360.906 78.0375C360.906 75.8137 360.377 73.4495 358.655 71.6499C356.902 69.8185 354.545 69.225 352.307 69.225V76.725C353.298 76.725 353.363 76.9755 353.225 76.8315C353.118 76.719 353.396 76.8862 353.396 78.0375H360.906ZM352.307 69.225H348.139V76.725H352.307V69.225ZM348.139 69.225C343.332 69.225 340.426 68.1838 338.755 66.7528L333.867 72.4472C337.452 75.516 342.433 76.725 348.139 76.725V69.225ZM338.841 66.8289C337.357 65.4779 336.236 63.0504 336.236 58.6875H328.726C328.726 64.2246 330.158 69.0721 333.782 72.3711L338.841 66.8289ZM336.236 58.6875V55.425H328.726V58.6875H336.236ZM336.236 55.425C336.236 51.0709 337.452 48.8159 339.04 47.6061L334.484 41.6439C330.364 44.7841 328.726 49.7291 328.726 55.425H336.236ZM339.089 47.5683C341.01 46.0534 344.242 45 349.378 45V37.5C343.4 37.5 338.221 38.6966 334.435 41.6817L339.089 47.5683ZM349.378 45H364.473V37.5H349.378V45ZM360.718 41.25V49.6875H368.228V41.25H360.718ZM364.473 45.9375H348.251V53.4375H364.473V45.9375ZM348.251 45.9375C345.781 45.9375 343.37 46.5353 341.4 48.1093L346.092 53.9657C346.375 53.7397 346.967 53.4375 348.251 53.4375V45.9375ZM341.525 48.0135C339.25 49.6795 338.301 52.153 338.301 54.75H345.811C345.811 54.3482 345.879 54.1748 345.897 54.1361C345.906 54.116 345.911 54.1099 345.913 54.1082C345.914 54.106 345.928 54.0898 345.966 54.0615L341.525 48.0135ZM338.301 54.75V58.8H345.811V54.75H338.301ZM338.301 58.8C338.301 61.2194 339.007 63.7228 341.095 65.4877L345.946 59.7623C345.975 59.7864 345.963 59.7993 345.929 59.7107C345.886 59.597 345.811 59.3204 345.811 58.8H338.301ZM341.201 65.5737C343.028 67.007 345.202 67.6125 347.463 67.6125V60.1125C346.571 60.1125 346.116 59.893 345.84 59.6763L341.201 65.5737ZM347.463 67.6125H351.293V60.1125H347.463V67.6125ZM351.293 67.6125C355.746 67.6125 358.51 68.7049 360.207 70.3034L365.359 64.8466C361.8 61.495 356.904 60.1125 351.293 60.1125V67.6125ZM360.249 70.3426C361.856 71.8089 362.971 74.2438 362.971 78.375H370.481C370.481 72.9061 368.968 68.1411 365.317 64.8074L360.249 70.3426ZM362.971 78.375V83.4375H370.481V78.375H362.971Z" fill="black"/>
<path d="M40.6223 54.6375L37.402 52.7079L37.3727 52.7586L40.6223 54.6375ZM20.0078 27.3H16.2529V31.05H20.0078V27.3ZM20.0078 18.75V15H16.2529V18.75H20.0078ZM44.7902 65.4375L47.8546 67.6047L47.8697 67.5832L44.7902 65.4375ZM54.9284 88.95H58.6833V85.2H54.9284V88.95ZM54.9284 97.5V101.25H58.6833V97.5H54.9284ZM17.7549 97.5H14V101.25H17.7549V97.5ZM17.7549 87.6L14.6813 85.446L14 86.4158V87.6H17.7549ZM35.7784 61.95C38.1777 58.5056 39.7085 56.2137 40.6223 54.6375L37.3727 52.7586C36.6342 54.0324 35.1031 56.3529 32.696 59.8085L35.7784 61.95ZM40.6223 54.6375C41.7135 52.8211 42.0286 52.1147 42.4246 50.1375L38.7426 49.4021C38.5378 50.4248 38.1132 51.5243 37.402 52.7079L40.6223 54.6375ZM42.4246 50.1375C42.7985 48.2705 43.8421 46.5369 43.8421 43.6125H39.1203C39.1203 46.388 38.9695 48.269 38.7426 49.4021L42.4246 50.1375ZM43.8421 43.6125V35.7375H39.1203V43.6125H43.8421ZM43.8421 35.7375C43.8421 32.3586 42.7299 32.1111 40.2843 29.775L37.6889 32.4849C38.6978 33.4487 39.1203 34.4664 39.1203 35.7375H43.8421ZM40.2843 29.775C37.7452 27.3494 37.1024 27.3 33.5255 27.3V31.05C35.5058 31.05 36.7735 31.6105 37.6889 32.4849L40.2843 29.775ZM33.5255 27.3H20.0078V31.05H33.5255V27.3ZM20.0078 27.3V18.75H16.2529V27.3H20.0078ZM20.0078 18.75L32.3887 19.25L32.399 15H20.0078V18.75ZM32.3887 19.25C38.337 19.25 44.8503 21.2249 47.3811 23.5875L49.9452 20.8481C45.5669 16.7606 39.5178 15 32.399 15L32.3887 19.25ZM47.3811 23.5875C49.8626 25.8021 52.9357 32.1779 52.9357 37.875H56.4304C56.4304 30.8222 54.4608 24.8767 49.8831 20.7913L47.3811 23.5875ZM52.9357 37.875V42.6H56.4304V37.875H52.9357ZM52.9357 42.6C52.9357 46.2109 52.3286 49.8044 51.8887 51.75L55.5496 52.5385C56.1611 49.8341 56.4304 46.489 56.4304 42.6H52.9357ZM51.8887 51.75C51.4266 53.7935 50.6713 56.2967 49.8831 57.75L52.9357 59.6861C54.1 57.5393 54.9603 55.145 55.5496 52.5385L51.8887 51.75ZM49.8831 57.75C49.0099 59.36 47.0214 62.2436 44.7902 65.4375L47.8697 67.5832C50.1443 64.3271 51.8564 61.676 52.9357 59.6861L49.8831 57.75ZM44.7902 65.4375L28.1184 88.95L31.1828 91.1175L47.8546 67.6047L44.7902 65.4375ZM28.1184 92.7H54.9284V85.2H35.3786L28.1184 88.95V92.7ZM51.1735 88.95V97.5H58.6833V88.95H51.1735ZM54.9284 97.5L17.7549 96.875V101.25H54.9284V97.5ZM17.7549 97.5V87.6H14V97.5H17.7549ZM17.7549 87.6L35.7784 61.95L32.7048 59.7959L14.6813 85.446L17.7549 87.6Z" fill="black"/>
<path d="M32.6223 54.6375L29.402 52.7079L29.3727 52.7586L32.6223 54.6375ZM12.0078 27.3H8.25294V31.05H12.0078V27.3ZM12.0078 18.75V15H8.25294V18.75H12.0078ZM36.7902 65.4375L39.8546 67.6047L39.8697 67.5832L36.7902 65.4375ZM46.9284 88.95H50.6833V85.2H46.9284V88.95ZM46.9284 97.5V101.25H50.6833V97.5H46.9284ZM9.7549 97.5H6V101.25H9.7549V97.5ZM9.7549 87.6L6.68129 85.446L6 86.4158V87.6H9.7549ZM27.7784 61.95C30.1777 58.5056 31.7085 56.2137 32.6223 54.6375L29.3727 52.7586C28.6342 54.0324 27.1031 56.3529 24.696 59.8085L27.7784 61.95ZM32.6223 54.6375C33.7135 52.8211 34.0286 52.1147 34.4246 50.1375L30.7426 49.4021C30.5378 50.4248 30.1132 51.5243 29.402 52.7079L32.6223 54.6375ZM34.4246 50.1375C34.7985 48.2705 35.8421 46.5369 35.8421 43.6125H31.1203C31.1203 46.388 30.9695 48.269 30.7426 49.4021L34.4246 50.1375ZM35.8421 43.6125V35.7375H31.1203V43.6125H35.8421ZM35.8421 35.7375C35.8421 32.3586 34.7299 32.1111 32.2843 29.775L29.6889 32.4849C30.6978 33.4487 31.1203 34.4664 31.1203 35.7375H35.8421ZM32.2843 29.775C29.7452 27.3494 29.1024 27.3 25.5255 27.3V31.05C27.5058 31.05 28.7735 31.6105 29.6889 32.4849L32.2843 29.775ZM25.5255 27.3H12.0078V31.05H25.5255V27.3ZM12.0078 27.3V18.75H8.25294V27.3H12.0078ZM12.0078 18.75L24.3887 19.25L24.399 15H12.0078V18.75ZM24.3887 19.25C30.337 19.25 36.8503 21.2249 39.3811 23.5875L41.9452 20.8481C37.5669 16.7606 31.5178 15 24.399 15L24.3887 19.25ZM39.3811 23.5875C41.8626 25.8021 44.9357 32.1779 44.9357 37.875H48.4304C48.4304 30.8222 46.4608 24.8767 41.8831 20.7913L39.3811 23.5875ZM44.9357 37.875V42.6H48.4304V37.875H44.9357ZM44.9357 42.6C44.9357 46.2109 44.3286 49.8044 43.8887 51.75L47.5496 52.5385C48.1611 49.8341 48.4304 46.489 48.4304 42.6H44.9357ZM43.8887 51.75C43.4266 53.7935 42.6713 56.2967 41.8831 57.75L44.9357 59.6861C46.1 57.5393 46.9603 55.145 47.5496 52.5385L43.8887 51.75ZM41.8831 57.75C41.0099 59.36 39.0214 62.2436 36.7902 65.4375L39.8697 67.5832C42.1443 64.3271 43.8564 61.676 44.9357 59.6861L41.8831 57.75ZM36.7902 65.4375L20.1184 88.95L23.1828 91.1175L39.8546 67.6047L36.7902 65.4375ZM20.1184 92.7H46.9284V85.2H27.3786L20.1184 88.95V92.7ZM43.1735 88.95V97.5H50.6833V88.95H43.1735ZM46.9284 97.5L9.7549 96.875V101.25H46.9284V97.5ZM9.7549 97.5V87.6H6V97.5H9.7549ZM9.7549 87.6L27.7784 61.95L24.7048 59.7959L6.68129 85.446L9.7549 87.6Z" fill="black"/>
</svg>
